grf
version=1
nRows=19
nColumns=37
inDegrees=no
endheader
time	ground_force_1_vx	ground_force_1_vy	ground_force_1_vz	ground_force_1_px	ground_force_1_py	ground_force_1_pz	ground_moment_1_mx	ground_moment_1_my	ground_moment_1_mz	ground_force_2_vx	ground_force_2_vy	ground_force_2_vz	ground_force_2_px	ground_force_2_py	ground_force_2_pz	ground_moment_2_mx	ground_moment_2_my	ground_moment_2_mz	ground_force_3_vx	ground_force_3_vy	ground_force_3_vz	ground_force_3_px	ground_force_3_py	ground_force_3_pz	ground_moment_3_mx	ground_moment_3_my	ground_moment_3_mz	ground_force_4_vx	ground_force_4_vy	ground_force_4_vz	ground_force_4_px	ground_force_4_py	ground_force_4_pz	ground_moment_4_mx	ground_moment_4_my	ground_moment_4_mz
      4.29000000	      0.00000000	     -0.00000000	      0.00000000	      0.00000000	      0.00000000	      0.00000000	      0.00000000	      0.00000000	      0.00000000	     -6.20892763	     30.94613647	   -394.96148682	   -272.59432651	  -1100.64665420	      0.00000000	      0.00000000	      0.00000000	   5019.38561461	      4.16940429	    -29.71104849	   -425.37033081	   -256.61714741	   -685.30867691	      0.00000000	      0.00000000	     -0.00000000	  -3125.70654104	      0.00000000	     -0.00000000	      0.00000000	      0.00000000	      0.00000000	      0.00000000	      0.00000000	      0.00000000	      0.00000000
      4.30000000	      0.00000000	     -0.00000000	      0.00000000	      0.00000000	      0.00000000	      0.00000000	      0.00000000	      0.00000000	      0.00000000	     -6.42315674	     30.90125275	   -396.16091919	   -272.52827056	  -1102.21005938	      0.00000000	      0.00000000	      0.00000000	   5056.80380703	      3.92093924	    -29.61414944	   -427.71075439	   -257.04944305	   -683.03928375	      0.00000000	      0.00000000	     -0.00000000	  -3185.40438307	      0.00000000	     -0.00000000	      0.00000000	      0.00000000	      0.00000000	      0.00000000	      0.00000000	      0.00000000	      0.00000000
      4.31000000	      0.00000000	     -0.00000000	      0.00000000	      0.00000000	      0.00000000	      0.00000000	      0.00000000	      0.00000000	      0.00000000	     -6.13738632	     30.51884270	   -394.46609497	   -273.27959962	  -1101.78096143	      0.00000000	      0.00000000	      0.00000000	   5251.92684031	      3.56622058	    -29.35822709	   -426.76831055	   -256.83726987	   -683.79796870	      0.00000000	      0.00000000	     -0.00000000	  -3134.17397218	      0.00000000	     -0.00000000	      0.00000000	      0.00000000	      0.00000000	      0.00000000	      0.00000000	      0.00000000	      0.00000000
      4.32000000	      0.00000000	     -0.00000000	      0.00000000	      0.00000000	      0.00000000	      0.00000000	      0.00000000	      0.00000000	      0.00000000	     -5.89703894	     30.64258385	   -393.58728027	   -273.26177019	  -1101.70320665	      0.00000000	      0.00000000	      0.00000000	   5234.05816583	      4.65681199	    -29.62349360	   -425.65115356	   -255.98210757	   -683.77699348	      0.00000000	      0.00000000	     -0.00000000	  -3309.92490460	      0.00000000	     -0.00000000	      0.00000000	      0.00000000	      0.00000000	      0.00000000	      0.00000000	      0.00000000	      0.00000000
      4.33000000	      0.00000000	     -0.00000000	      0.00000000	      0.00000000	      0.00000000	      0.00000000	      0.00000000	      0.00000000	      0.00000000	     -6.58316517	     30.64246178	   -393.66113281	   -273.45628354	  -1102.78993275	      0.00000000	      0.00000000	      0.00000000	   5068.06286045	      3.45971800	    -29.87970764	   -425.68695068	   -255.73150976	   -684.37934390	      0.00000000	      0.00000000	     -0.00000000	  -3162.56606851	      0.00000000	     -0.00000000	      0.00000000	      0.00000000	      0.00000000	      0.00000000	      0.00000000	      0.00000000	      0.00000000
      4.34000000	      0.00000000	     -0.00000000	      0.00000000	      0.00000000	      0.00000000	      0.00000000	      0.00000000	      0.00000000	      0.00000000	     -6.54587412	     30.35071373	   -391.71331787	   -272.74260915	  -1100.60915238	      0.00000000	      0.00000000	      0.00000000	   5008.68151022	      3.01616407	    -29.92291286	   -426.86904907	   -256.08569114	   -683.25762969	      0.00000000	      0.00000000	     -0.00000000	  -3126.53171528	      0.00000000	     -0.00000000	      0.00000000	      0.00000000	      0.00000000	      0.00000000	      0.00000000	      0.00000000	      0.00000000
      4.35000000	      0.00000000	     -0.00000000	      0.00000000	      0.00000000	      0.00000000	      0.00000000	      0.00000000	      0.00000000	      0.00000000	     -5.31948900	     30.15408516	   -392.38293457	   -273.84546608	  -1100.56814162	      0.00000000	      0.00000000	      0.00000000	   5193.97352234	      4.12355588	    -30.17862928	   -425.68801880	   -256.28671033	   -685.06925558	      0.00000000	      0.00000000	     -0.00000000	  -3214.53152865	      0.00000000	     -0.00000000	      0.00000000	      0.00000000	      0.00000000	      0.00000000	      0.00000000	      0.00000000	      0.00000000
      4.36000000	      0.00000000	     -0.00000000	      0.00000000	      0.00000000	      0.00000000	      0.00000000	      0.00000000	      0.00000000	      0.00000000	     -5.25401974	     29.69920731	   -391.99252319	   -274.09478302	  -1100.33297002	      0.00000000	      0.00000000	      0.00000000	   5109.44491533	      4.09914281	    -29.76440847	   -428.54034424	   -257.10790036	   -683.87608400	      0.00000000	      0.00000000	     -0.00000000	  -3145.03227374	      0.00000000	     -0.00000000	      0.00000000	      0.00000000	      0.00000000	      0.00000000	      0.00000000	      0.00000000	      0.00000000
      4.37000000	      0.00000000	     -0.00000000	      0.00000000	      0.00000000	      0.00000000	      0.00000000	      0.00000000	      0.00000000	      0.00000000	     -5.75129366	     29.41303253	   -392.10476685	   -274.19177679	  -1101.55247788	      0.00000000	      0.00000000	      0.00000000	   4835.89021628	      3.76305824	    -29.42038378	   -427.28836060	   -256.83959540	   -684.06074334	      0.00000000	      0.00000000	     -0.00000000	  -3039.59156791	      0.00000000	     -0.00000000	      0.00000000	      0.00000000	      0.00000000	      0.00000000	      0.00000000	      0.00000000	      0.00000000
      4.38000000	      0.00000000	     -0.00000000	      0.00000000	      0.00000000	      0.00000000	      0.00000000	      0.00000000	      0.00000000	      0.00000000	     -5.36553240	     29.29531288	   -390.45266724	   -274.48025891	  -1099.97971691	      0.00000000	      0.00000000	      0.00000000	   5062.52250806	      4.76229267	    -29.49012226	   -428.64764404	   -257.22560515	   -683.92924643	      0.00000000	      0.00000000	     -0.00000000	  -3191.61618077	      0.00000000	     -0.00000000	      0.00000000	      0.00000000	      0.00000000	      0.00000000	      0.00000000	      0.00000000	      0.00000000
      4.39000000	      0.00000000	     -0.00000000	      0.00000000	      0.00000000	      0.00000000	      0.00000000	      0.00000000	      0.00000000	      0.00000000	     -5.02179289	     28.80830574	   -390.26385498	   -274.53489672	  -1101.60404565	      0.00000000	      0.00000000	      0.00000000	   5193.41130605	      4.42611198	    -29.51820984	   -428.29776001	   -258.61307158	   -684.05072206	      0.00000000	      0.00000000	     -0.00000000	  -3200.31695954	      0.00000000	     -0.00000000	      0.00000000	      0.00000000	      0.00000000	      0.00000000	      0.00000000	      0.00000000	      0.00000000
      4.40000000	      0.00000000	     -0.00000000	      0.00000000	      0.00000000	      0.00000000	      0.00000000	      0.00000000	      0.00000000	      0.00000000	     -5.29245138	     28.60119057	   -388.41296387	   -274.77725583	  -1099.09698043	      0.00000000	      0.00000000	      0.00000000	   5075.01217135	      4.37532594	    -29.77386704	   -428.05987549	   -258.89697970	   -683.78388695	      0.00000000	      0.00000000	     -0.00000000	  -3158.74890577	      0.00000000	     -0.00000000	      0.00000000	      0.00000000	      0.00000000	      0.00000000	      0.00000000	      0.00000000	      0.00000000
      4.41000000	      0.00000000	     -0.00000000	      0.00000000	      0.00000000	      0.00000000	      0.00000000	      0.00000000	      0.00000000	      0.00000000	     -4.45078754	     28.38238335	   -390.41806030	   -275.77951382	  -1100.80869725	      0.00000000	      0.00000000	      0.00000000	   5075.83197209	      4.56248880	    -29.98178140	   -425.96496582	   -259.15880319	   -684.49253131	      0.00000000	      0.00000000	     -0.00000000	  -3334.12063173	      0.00000000	     -0.00000000	      0.00000000	      0.00000000	      0.00000000	      0.00000000	      0.00000000	      0.00000000	      0.00000000
      4.42000000	      0.00000000	     -0.00000000	      0.00000000	      0.00000000	      0.00000000	      0.00000000	      0.00000000	      0.00000000	      0.00000000	     -3.38999939	     27.94771957	   -389.94949341	   -276.51487975	  -1100.63011614	      0.00000000	      0.00000000	      0.00000000	   5022.96344567	      5.17413544	    -30.06012390	   -423.67266846	   -258.68823173	   -684.38256300	      0.00000000	      0.00000000	     -0.00000000	  -3237.89000943	      0.00000000	     -0.00000000	      0.00000000	      0.00000000	      0.00000000	      0.00000000	      0.00000000	      0.00000000	      0.00000000
      4.43000000	      0.00000000	     -0.00000000	      0.00000000	      0.00000000	      0.00000000	      0.00000000	      0.00000000	      0.00000000	      0.00000000	     -2.76552582	     27.54129410	   -388.89022827	   -277.23423187	  -1100.56913260	      0.00000000	      0.00000000	      0.00000000	   5195.14309889	      5.69688392	    -30.01971867	   -422.08615112	   -259.07687778	   -684.30047544	      0.00000000	      0.00000000	     -0.00000000	  -3326.54346827	      0.00000000	     -0.00000000	      0.00000000	      0.00000000	      0.00000000	      0.00000000	      0.00000000	      0.00000000	      0.00000000
      4.44000000	      0.00000000	     -0.00000000	      0.00000000	      0.00000000	      0.00000000	      0.00000000	      0.00000000	      0.00000000	      0.00000000	     -2.70610976	     27.24413490	   -386.65408325	   -278.04554092	  -1099.53498056	      0.00000000	      0.00000000	      0.00000000	   5131.89099465	      5.40160248	    -30.32346963	   -421.66000366	   -259.82667692	   -684.17584443	      0.00000000	      0.00000000	     -0.00000000	  -3270.61358000	      0.00000000	     -0.00000000	      0.00000000	      0.00000000	      0.00000000	      0.00000000	      0.00000000	      0.00000000	      0.00000000
      4.45000000	      0.00000000	     -0.00000000	      0.00000000	      0.00000000	      0.00000000	      0.00000000	      0.00000000	      0.00000000	      0.00000000	     -2.16194224	     27.36303329	   -384.92999268	   -278.86927935	  -1100.86251083	      0.00000000	      0.00000000	      0.00000000	   5333.66892656	      5.06634206	    -30.57911536	   -419.83499146	   -259.74313301	   -684.03748729	      0.00000000	      0.00000000	     -0.00000000	  -3248.27954783	      0.00000000	     -0.00000000	      0.00000000	      0.00000000	      0.00000000	      0.00000000	      0.00000000	      0.00000000	      0.00000000
      4.46000000	      0.00000000	     -0.00000000	      0.00000000	      0.00000000	      0.00000000	      0.00000000	      0.00000000	      0.00000000	      0.00000000	     -1.92235196	     26.80813026	   -385.23959351	   -280.22593203	  -1100.41004636	      0.00000000	      0.00000000	      0.00000000	   5216.26245445	      5.12574600	    -30.12754294	   -419.44668579	   -261.03885240	   -683.94904094	      0.00000000	      0.00000000	      0.00000000	  -3411.06698897	      0.00000000	     -0.00000000	      0.00000000	      0.00000000	      0.00000000	      0.00000000	      0.00000000	      0.00000000	      0.00000000
      4.47000000	      0.00000000	     -0.00000000	      0.00000000	      0.00000000	      0.00000000	      0.00000000	      0.00000000	      0.00000000	      0.00000000	     -0.60420829	     26.15372086	   -380.92852783	   -280.49365972	  -1099.07370136	      0.00000000	      0.00000000	      0.00000000	   5541.63677656	      6.53473638	    -30.14656124	   -417.77780151	   -262.10558466	   -684.65554184	      0.00000000	      0.00000000	      0.00000000	  -3624.08756133	      0.00000000	     -0.00000000	      0.00000000	      0.00000000	      0.00000000	      0.00000000	      0.00000000	      0.00000000	      0.00000000
